<?xml version="1.0" encoding="UTF-8" standalone="no"?>
<!-- Created with Inkscape (http://www.inkscape.org/) -->

<svg
   width="260"
   height="40"
   viewBox="0 0 68.791666 10.583333"
   version="1.1"
   id="svg1"
   inkscape:version="1.4 (e7c3feb100, 2024-10-09)"
   sodipodi:docname="logo.svg"
   xmlns:inkscape="http://www.inkscape.org/namespaces/inkscape"
   xmlns:sodipodi="http://sodipodi.sourceforge.net/DTD/sodipodi-0.dtd"
   xmlns="http://www.w3.org/2000/svg"
   xmlns:svg="http://www.w3.org/2000/svg">
  <sodipodi:namedview
     id="namedview1"
     pagecolor="#ffffff"
     bordercolor="#000000"
     borderopacity="0.25"
     inkscape:showpageshadow="true"
     inkscape:pageopacity="0.0"
     inkscape:pagecheckerboard="false"
     inkscape:deskcolor="#d1d1d1"
     inkscape:document-units="mm"
     showborder="true"
     inkscape:antialias-rendering="true"
     labelstyle="default"
     inkscape:zoom="2.0056913"
     inkscape:cx="97.472627"
     inkscape:cy="44.373728"
     inkscape:window-width="1920"
     inkscape:window-height="1019"
     inkscape:window-x="0"
     inkscape:window-y="0"
     inkscape:window-maximized="1"
     inkscape:current-layer="layer1"
     borderlayer="true" />
  <defs
     id="defs1" />
  <g
     inkscape:label="Layer 1"
     inkscape:groupmode="layer"
     id="layer1"
     transform="translate(-61.391309,-95.736221)"
     style="display:inline">
    <path
       d="m 61.391309,97.246544 h 4.029388 q 1.372528,0 2.182815,0.435461 0.810287,0.43546 1.289845,1.289845 0.48507,0.854385 0.48507,2.05052 0,0.83234 -0.248047,1.48828 -0.242535,0.65595 -0.727605,1.18512 -0.48507,0.52365 -1.041798,0.78824 -0.418924,0.19843 -1.190626,0.32521 -0.76619,0.12678 -1.229212,0.12678 h -3.54983 v -1.06384 h 0.264584 q 0.336242,0 0.440973,-0.0551 0.104731,-0.0551 0.170877,-0.18742 0.0441,-0.10473 0.0441,-0.45751 v -4.20026 q 0,-0.352778 -0.04961,-0.451997 -0.0441,-0.104731 -0.15434,-0.15434 -0.104731,-0.05512 -0.451997,-0.05512 h -0.264584 z m 2.811201,1.234724 v 4.779042 q 0,0.24253 0.02756,0.29765 0.0441,0.0827 0.12678,0.11576 0.08819,0.0276 0.413412,0.0276 0.903994,0 1.411112,-0.27561 0.512631,-0.28112 0.826824,-0.89297 0.314193,-0.61736 0.314193,-1.46623 0,-0.83785 -0.297657,-1.45521 -0.292144,-0.622873 -0.727605,-0.876433 -0.43546,-0.253559 -1.245747,-0.253559 z m 5.958643,-1.234724 h 3.748268 v 1.063847 h -0.341754 q -0.297657,0 -0.396876,0.05512 -0.09371,0.04961 -0.143316,0.165364 -0.0441,0.110244 -0.0441,0.429949 v 4.255386 q 0,0.34727 0.03858,0.44648 0.03858,0.0992 0.132292,0.14332 0.115755,0.0661 0.347266,0.0661 h 0.4079 v 1.06384 h -3.748268 v -1.06384 h 0.303169 q 0.325217,0 0.424436,-0.0441 0.09922,-0.0496 0.143316,-0.14883 0.04961,-0.10473 0.04961,-0.4079 v -4.271921 q 0,-0.35829 -0.04961,-0.468534 -0.0441,-0.115755 -0.15434,-0.176389 -0.07717,-0.0441 -0.374827,-0.0441 h -0.341754 z m 4.139631,0 h 3.654561 v 1.063847 H 77.83959 q -0.347266,0 -0.446485,0.02756 -0.09371,0.02756 -0.159853,0.115755 -0.06615,0.08819 -0.06615,0.181901 0,0.115756 0.12678,0.474046 l 1.361503,3.830947 1.449698,-3.930166 q 0.104731,-0.292144 0.104731,-0.402387 0,-0.154341 -0.104731,-0.225999 -0.09922,-0.07166 -0.435461,-0.07166 h -0.237023 v -1.063847 h 2.976566 v 1.063847 q -0.369315,0 -0.496094,0.08268 -0.192926,0.12678 -0.385851,0.617362 l -2.304083,5.92556 H 77.492324 L 75.149656,98.97185 Q 75.00634,98.61356 74.92917,98.514341 74.852,98.415122 74.708684,98.36 74.57088,98.30488 74.300784,98.31039 Z m 11.332997,0 h 1.725306 l 2.309594,5.936596 q 0.187413,0.47404 0.330729,0.58429 0.148829,0.11024 0.540192,0.10473 v 1.06384 h -3.638025 v -1.06384 l 0.220487,-0.006 q 0.303169,0 0.424436,-0.0772 0.121268,-0.0827 0.121268,-0.19843 0,-0.0992 -0.104732,-0.4079 l -0.225998,-0.70005 h -2.342667 l -0.286633,0.77722 q -0.08819,0.24804 -0.08819,0.32521 0,0.0882 0.06063,0.15986 0.06615,0.0717 0.209462,0.10473 0.09371,0.022 0.518143,0.022 v 1.06384 h -2.976566 v -1.06384 q 0.286632,0 0.418924,-0.0496 0.132292,-0.0496 0.214974,-0.14883 0.08819,-0.0992 0.192926,-0.36932 z m -0.237023,4.139626 h 1.537892 l -0.749653,-2.116663 z m 6.118498,-4.398697 h 0.727605 l 0.07717,0.259071 H 96.6581 l 0.09371,-0.259071 h 0.733117 l 0.953603,2.695445 -1.025261,0.358292 q -0.341754,-0.672485 -0.490582,-0.876434 -0.292145,-0.402388 -0.672484,-0.633899 -0.286632,-0.176389 -0.567752,-0.176389 -0.132292,0 -0.181901,0.06615 -0.04961,0.06063 -0.04961,0.286632 v 4.42075 q 0,0.39136 0.02756,0.49058 0.02756,0.0992 0.09371,0.15985 0.06615,0.0551 0.181901,0.0772 0.115756,0.0165 0.617362,0.0165 v 1.06384 H 92.6232 v -1.06384 h 0.225999 q 0.374826,0 0.479557,-0.0441 0.104731,-0.0496 0.159853,-0.16537 0.05512,-0.12126 0.05512,-0.49609 v -4.519963 q 0,-0.192926 -0.0441,-0.242535 -0.0441,-0.04961 -0.187413,-0.04961 -0.286632,0 -0.63941,0.214974 -0.352778,0.214975 -0.628386,0.606338 -0.110244,0.15434 -0.468534,0.865406 l -1.008725,-0.358288 z m 7.347707,0.259071 h 4.740457 q 0.45751,0 0.9977,0.08268 0.5457,0.08268 0.98116,0.363802 0.44098,0.28112 0.68351,0.711069 0.24254,0.429948 0.24254,0.97014 0,0.876435 -0.62839,1.422135 -0.62287,0.54019 -1.47726,0.70556 l 1.58199,1.84106 0.0662,0.0827 q 0.15434,0.18742 0.28112,0.28112 0.12678,0.0882 0.25356,0.12678 0.12678,0.0386 0.35277,0.0386 h 0.33073 v 1.06384 h -2.46393 l -2.46945,-3.3128 h -0.63941 v 1.53238 q 0,0.39687 0.0441,0.50711 0.0441,0.10474 0.1378,0.15986 0.0992,0.0496 0.39137,0.0496 h 0.35277 v 1.06384 h -3.759287 v -1.06384 h 0.341753 q 0.270096,0 0.380339,-0.0551 0.115756,-0.0606 0.170877,-0.17639 0.02756,-0.0661 0.02756,-0.41342 v -4.327041 q 0,-0.253559 -0.0441,-0.35829 -0.03858,-0.110243 -0.132292,-0.143316 -0.132292,-0.06063 -0.303169,-0.06063 l -0.15434,0.0055 h -0.286632 z m 2.833247,1.262285 v 1.989891 h 1.14102 q 0.67248,0 1.00321,-0.12127 0.33624,-0.12678 0.50161,-0.35829 0.17087,-0.231511 0.17087,-0.56224 0,-0.303169 -0.15985,-0.518143 -0.15434,-0.220486 -0.44648,-0.325217 -0.28663,-0.104731 -0.94258,-0.104731 z m 5.76572,-1.262285 h 3.75378 v 1.063847 h -0.36931 q -0.25356,0 -0.36381,0.06063 -0.10473,0.06063 -0.15434,0.176389 -0.0496,0.110243 -0.0496,0.457509 v 2.800181 q 0,0.78272 0.15434,1.16858 0.15986,0.38585 0.47405,0.5898 0.3197,0.19843 0.7717,0.19843 0.452,0 0.80478,-0.22048 0.35277,-0.22049 0.5016,-0.55673 0.15434,-0.34175 0.15434,-1.12448 v -3.086812 q 0,-0.192925 -0.0496,-0.275608 -0.0661,-0.110243 -0.17639,-0.15434 -0.0772,-0.03307 -0.39136,-0.03307 h -0.29765 v -1.063847 h 3.18051 v 1.063847 h -0.24805 q -0.36931,0 -0.45751,0.0441 -0.13229,0.06615 -0.19292,0.192926 -0.0441,0.08268 -0.0441,0.457509 v 3.031685 q 0,0.83785 -0.24253,1.4056 -0.33625,0.7717 -1.07487,1.20165 -0.73312,0.42444 -1.74185,0.42444 -0.71106,0 -1.27331,-0.21498 -0.56224,-0.22049 -0.98667,-0.62287 -0.41893,-0.4079 -0.5898,-0.8599 -0.16537,-0.452 -0.16537,-1.33394 v -2.971051 q 0,-0.4079 -0.0441,-0.523655 -0.0441,-0.121268 -0.14332,-0.176389 -0.0992,-0.05512 -0.38585,-0.05512 h -0.35278 z m 14.84424,0 v 1.063847 l -4.06797,5.429479 h 0.47956 q 0.99218,0 1.48277,-0.18191 0.49058,-0.18741 0.90399,-0.65594 0.41892,-0.46854 0.65043,-1.15204 l 1.00873,0.34175 -1.00873,2.84427 h -5.87044 v -1.06384 l 4.08451,-5.412941 h -0.63941 q -0.65044,0 -1.04732,0.154341 -0.39687,0.15434 -0.68901,0.457509 -0.29215,0.303169 -0.83785,1.273311 l -0.97014,-0.429951 1.16857,-2.667885 z m 7.22644,0 v 1.063847 l -4.06797,5.429479 h 0.47956 q 0.99218,0 1.48277,-0.18191 0.49058,-0.18741 0.90399,-0.65594 0.41892,-0.46854 0.65044,-1.15204 l 1.00872,0.34175 -1.00872,2.84427 h -5.87045 v -1.06384 l 4.08451,-5.412941 h -0.63941 q -0.65044,0 -1.04731,0.154341 -0.39688,0.15434 -0.68902,0.457509 -0.29215,0.303169 -0.83785,1.273311 l -0.97014,-0.429951 1.16858,-2.667885 z"
       id="text1"
       style="font-weight:600;font-size:11.2889px;font-family:'Bookman Old Style';-inkscape-font-specification:'Bookman Old Style, Semi-Bold';stroke-width:0.264583"
       aria-label="DIVATRUZZ" />
  </g>
</svg>
